<svg width="25" height="25" viewBox="0 0 25 25" fill="none" xmlns="http://www.w3.org/2000/svg">
<path d="M12.5 10C13.8807 10 15 8.88071 15 7.5C15 6.11929 13.8807 5 12.5 5C11.1193 5 10 6.11929 10 7.5C10 8.88071 11.1193 10 12.5 10Z" stroke="black" stroke-width="2" stroke-linecap="round" stroke-linejoin="round"/>
<path d="M16.9384 4.89137L17.8043 4.39118L17.8043 4.39117L16.9384 4.89137ZM16.9795 4.96253L16.1136 5.46272L16.1136 5.46272L16.9795 4.96253ZM17.4542 5.42963L17.9404 4.55576L17.9404 4.55575L17.4542 5.42963ZM18.4237 5.96895L17.9375 6.84283L17.9375 6.84283L18.4237 5.96895ZM18.7448 6.51371L17.7448 6.51598V6.51598L18.7448 6.51371ZM18.7493 8.4836L17.7493 8.48587V8.48587L18.7493 8.4836ZM18.4272 9.03169L17.9425 8.15701L17.9425 8.15701L18.4272 9.03169ZM17.4554 9.57023L17.9402 10.4449L17.4554 9.57023ZM16.9789 10.0383L16.113 9.53814L16.113 9.53814L16.9789 10.0383ZM16.9384 10.1085L17.8043 10.6087L17.8043 10.6087L16.9384 10.1085ZM16.771 10.7548L15.7711 10.7716V10.7716L16.771 10.7548ZM16.7897 11.8679L15.7898 11.8847L16.7897 11.8679ZM16.4785 12.4189L15.9765 11.5541L15.9765 11.5541L16.4785 12.4189ZM14.7735 13.4085L15.2755 14.2734L15.2755 14.2734L14.7735 13.4085ZM14.1381 13.4038L14.6528 12.5464L14.6528 12.5464L14.1381 13.4038ZM13.1843 12.8312L12.6696 13.6885L13.1843 12.8312ZM11.8164 12.8304L12.3302 13.6884L12.3302 13.6884L11.8164 12.8304ZM10.867 13.3989L10.3533 12.541L10.867 13.3989ZM10.2339 13.4042L10.7332 12.5378L10.2339 13.4042ZM8.52349 12.4186L9.02278 11.5522L8.52349 12.4186ZM8.21063 11.8665L9.21049 11.8834V11.8834L8.21063 11.8665ZM8.22934 10.7583L7.22948 10.7415V10.7415L8.22934 10.7583ZM8.06437 10.1163L8.93225 9.6195L8.06437 10.1163ZM8.02092 10.0404L7.15304 10.5371L7.15304 10.5371L8.02092 10.0404ZM7.54375 9.56898L7.0576 10.4429H7.0576L7.54375 9.56898ZM6.57661 9.03095L6.09047 9.90483H6.09047L6.57661 9.03095ZM6.25545 8.4862L5.25546 8.48847L6.25545 8.4862ZM6.25098 6.51631L7.25098 6.51403L6.25098 6.51631ZM6.57303 5.96822L7.05774 6.84289L7.05774 6.84289L6.57303 5.96822ZM7.54483 5.42967L7.06012 4.555L7.06012 4.555L7.54483 5.42967ZM8.02133 4.96157L7.15542 4.46138L7.15542 4.46138L8.02133 4.96157ZM8.06189 4.89137L8.9278 5.39156L8.9278 5.39156L8.06189 4.89137ZM8.22932 4.2451L9.22918 4.22827V4.22827L8.22932 4.2451ZM8.21059 3.13203L7.21073 3.14885L8.21059 3.13203ZM8.52177 2.58096L9.02374 3.44585V3.44585L8.52177 2.58096ZM10.2268 1.5914L10.7287 2.45629L10.7287 2.45629L10.2268 1.5914ZM10.8622 1.59611L10.3475 2.45347V2.45347L10.8622 1.59611ZM11.816 2.16871L11.3013 3.02608L11.816 2.16871ZM13.1838 2.16946L12.6701 1.3115L12.6701 1.3115L13.1838 2.16946ZM14.1333 1.60097L13.6195 0.743011L13.6195 0.743011L14.1333 1.60097ZM14.7664 1.59567L15.2657 0.729231V0.72923L14.7664 1.59567ZM16.4768 2.5813L16.9761 1.71486V1.71486L16.4768 2.5813ZM16.7897 3.13333L15.7898 3.11651V3.11651L16.7897 3.13333ZM16.771 4.2451L15.7711 4.22828V4.22828L16.771 4.2451ZM16.0725 5.39156L16.1136 5.46272L17.8454 4.46234L17.8043 4.39118L16.0725 5.39156ZM16.9681 6.30351L17.9375 6.84283L18.9098 5.09507L17.9404 4.55576L16.9681 6.30351ZM17.7448 6.51598L17.7493 8.48587L19.7493 8.48133L19.7448 6.51144L17.7448 6.51598ZM17.9425 8.15701L16.9707 8.69556L17.9402 10.4449L18.912 9.90636L17.9425 8.15701ZM16.113 9.53814L16.0725 9.60835L17.8043 10.6087L17.8449 10.5385L16.113 9.53814ZM15.7711 10.7716L15.7898 11.8847L17.7895 11.851L17.7708 10.738L15.7711 10.7716ZM15.9765 11.5541L14.2716 12.5436L15.2755 14.2734L16.9805 13.2838L15.9765 11.5541ZM14.6528 12.5464L13.699 11.9738L12.6696 13.6885L13.6234 14.2612L14.6528 12.5464ZM12.5409 11.6529H12.4586V13.6529H12.5409V11.6529ZM11.3027 11.9725L10.3533 12.541L11.3807 14.2569L12.3302 13.6884L11.3027 11.9725ZM10.7332 12.5378L9.02278 11.5522L8.02421 13.2851L9.7346 14.2707L10.7332 12.5378ZM9.21049 11.8834L9.2292 10.7752L7.22948 10.7415L7.21078 11.8497L9.21049 11.8834ZM8.93225 9.6195L8.8888 9.54359L7.15304 10.5371L7.19649 10.613L8.93225 9.6195ZM8.02989 8.6951L7.06276 8.15707L6.09047 9.90483L7.0576 10.4429L8.02989 8.6951ZM7.25545 8.48392L7.25098 6.51403L5.25098 6.51858L5.25546 8.48847L7.25545 8.48392ZM7.05774 6.84289L8.02955 6.30435L7.06012 4.555L6.08831 5.09354L7.05774 6.84289ZM8.88725 5.46177L8.9278 5.39156L7.19597 4.39117L7.15542 4.46138L8.88725 5.46177ZM9.22918 4.22827L9.21045 3.11521L7.21073 3.14885L7.22946 4.26192L9.22918 4.22827ZM9.02374 3.44585L10.7287 2.45629L9.72479 0.72652L8.0198 1.71608L9.02374 3.44585ZM10.3475 2.45347L11.3013 3.02608L12.3307 1.31135L11.3769 0.738746L10.3475 2.45347ZM12.4594 3.34701H12.5417V1.34701H12.4594V3.34701ZM13.6976 3.02742L14.647 2.45893L13.6195 0.743011L12.6701 1.3115L13.6976 3.02742ZM14.2671 2.46211L15.9775 3.44773L16.9761 1.71486L15.2657 0.729231L14.2671 2.46211ZM15.7898 3.11651L15.7711 4.22828L17.7708 4.26192L17.7895 3.15016L15.7898 3.11651ZM15.9775 3.44773C15.8594 3.37966 15.7875 3.25283 15.7898 3.11651L17.7895 3.15016C17.7995 2.55943 17.488 2.00984 16.9761 1.71486L15.9775 3.44773ZM14.647 2.45893C14.5303 2.52879 14.3849 2.53001 14.2671 2.46211L15.2657 0.72923C14.7551 0.434988 14.1252 0.440261 13.6195 0.743011L14.647 2.45893ZM12.5417 3.34701C12.9488 3.34701 13.3483 3.23656 13.6976 3.02742L12.6701 1.3115C12.6313 1.33474 12.5869 1.34701 12.5417 1.34701V3.34701ZM11.3013 3.02608C11.6511 3.23608 12.0514 3.34701 12.4594 3.34701V1.34701C12.414 1.34701 12.3696 1.33469 12.3307 1.31135L11.3013 3.02608ZM10.7287 2.45629C10.6106 2.52484 10.4646 2.52376 10.3475 2.45347L11.3769 0.738746C10.8695 0.434134 10.2366 0.429451 9.72479 0.72652L10.7287 2.45629ZM9.21045 3.11521C9.21273 3.25111 9.1413 3.37762 9.02374 3.44585L8.0198 1.71608C7.51037 2.01174 7.20082 2.55993 7.21073 3.14885L9.21045 3.11521ZM8.9278 5.39156C9.13186 5.03829 9.23604 4.63619 9.22918 4.22827L7.22946 4.26192C7.23022 4.30724 7.21865 4.35192 7.19597 4.39118L8.9278 5.39156ZM8.02955 6.30435C8.38658 6.10649 8.68307 5.81523 8.88725 5.46177L7.15542 4.46138C7.13273 4.50065 7.09979 4.53302 7.06012 4.555L8.02955 6.30435ZM7.25098 6.51403C7.25129 6.65067 7.17726 6.77666 7.05774 6.84289L6.08831 5.09354C5.57043 5.38054 5.24964 5.92649 5.25098 6.51858L7.25098 6.51403ZM7.06276 8.15707C7.18143 8.22309 7.25514 8.34812 7.25545 8.48392L5.25546 8.48847C5.25679 9.07696 5.5762 9.61874 6.09047 9.90483L7.06276 8.15707ZM8.8888 9.54359C8.68514 9.18779 8.38815 8.8944 8.02989 8.6951L7.0576 10.4429C7.09741 10.465 7.13041 10.4976 7.15304 10.5371L8.8888 9.54359ZM9.2292 10.7752C9.23604 10.3703 9.13345 9.97099 8.93225 9.6195L7.19649 10.613C7.21885 10.6521 7.23024 10.6965 7.22948 10.7415L9.2292 10.7752ZM9.02278 11.5522C9.14091 11.6203 9.21279 11.7471 9.21049 11.8834L7.21078 11.8497C7.2008 12.4404 7.51227 12.9901 8.02421 13.2851L9.02278 11.5522ZM10.3533 12.541C10.47 12.4711 10.6153 12.4699 10.7332 12.5378L9.7346 14.2707C10.2452 14.5649 10.8751 14.5596 11.3807 14.2569L10.3533 12.541ZM12.4586 11.6529C12.0515 11.6529 11.652 11.7633 11.3027 11.9725L12.3302 13.6884C12.369 13.6652 12.4134 13.6529 12.4586 13.6529V11.6529ZM13.699 11.9738C13.3492 11.7638 12.9489 11.6529 12.5409 11.6529V13.6529C12.5862 13.6529 12.6307 13.6652 12.6696 13.6885L13.699 11.9738ZM14.2716 12.5436C14.3897 12.4751 14.5357 12.4761 14.6528 12.5464L13.6234 14.2612C14.1308 14.5658 14.7636 14.5705 15.2755 14.2734L14.2716 12.5436ZM15.7898 11.8847C15.7875 11.7488 15.859 11.6223 15.9765 11.5541L16.9805 13.2838C17.4899 12.9882 17.7995 12.44 17.7895 11.851L15.7898 11.8847ZM16.0725 9.60834C15.8684 9.96161 15.7642 10.3637 15.7711 10.7716L17.7708 10.738C17.7701 10.6927 17.7816 10.648 17.8043 10.6087L16.0725 9.60834ZM16.9707 8.69556C16.6137 8.89341 16.3172 9.18467 16.113 9.53814L17.8449 10.5385C17.8675 10.4992 17.9005 10.4669 17.9402 10.4449L16.9707 8.69556ZM17.7493 8.48587C17.749 8.34923 17.823 8.22324 17.9425 8.15701L18.912 9.90636C19.4298 9.61937 19.7506 9.07341 19.7493 8.48132L17.7493 8.48587ZM17.9375 6.84283C17.8188 6.77681 17.7451 6.65178 17.7448 6.51598L19.7448 6.51144C19.7435 5.92295 19.4241 5.38117 18.9098 5.09507L17.9375 6.84283ZM16.1136 5.46272C16.3171 5.8151 16.6124 6.10568 16.9681 6.30351L17.9404 4.55575C17.9008 4.53377 17.868 4.50149 17.8454 4.46233L16.1136 5.46272ZM17.8043 4.39117C17.7816 4.35192 17.7701 4.30725 17.7708 4.26192L15.7711 4.22828C15.7642 4.63619 15.8684 5.03829 16.0725 5.39156L17.8043 4.39117Z" fill="black"/>
<path d="M4.16699 21.875C4.16699 18.9985 7.89795 16.6666 12.5003 16.6666C17.1027 16.6666 20.8337 18.9985 20.8337 21.875" stroke="black" stroke-width="2" stroke-linecap="round" stroke-linejoin="round"/>
</svg>
