<svg width="131" height="130" viewBox="0 0 131 130" fill="none" xmlns="http://www.w3.org/2000/svg">
<path d="M70.958 21.6667H68.958H70.958ZM70.958 48.75V50.75C71.4884 50.75 71.9972 50.5393 72.3722 50.1642C72.7473 49.7891 72.958 49.2804 72.958 48.75H70.958ZM21.833 48.75H19.833C19.833 49.8546 20.7284 50.75 21.833 50.75L21.833 48.75ZM21.833 16.25L21.833 14.25C20.7284 14.25 19.833 15.1454 19.833 16.25L21.833 16.25ZM65.4997 16.25V14.25V16.25ZM68.958 21.6667V48.75H72.958V21.6667H68.958ZM70.958 46.75L21.833 46.75L21.833 50.75L70.958 50.75V46.75ZM23.833 48.75L23.833 16.25L19.833 16.25L19.833 48.75L23.833 48.75ZM21.833 18.25L65.4997 18.25V14.25L21.833 14.25L21.833 18.25ZM72.958 21.6667C72.958 17.5561 69.6043 14.25 65.4997 14.25V18.25C67.4241 18.25 68.958 19.7941 68.958 21.6667H72.958Z" fill="black"/>
<path d="M109.166 54.1667H107.166H109.166ZM109.166 75.8333H111.166H109.166ZM103.708 81.25V79.25V81.25ZM21.833 81.25H19.833C19.833 81.7804 20.0437 82.2891 20.4188 82.6642C20.7939 83.0393 21.3026 83.25 21.833 83.25L21.833 81.25ZM21.833 48.75L21.833 46.75C20.7284 46.75 19.833 47.6454 19.833 48.75L21.833 48.75ZM103.708 48.75V46.75V48.75ZM107.166 54.1667V75.8333H111.166V54.1667H107.166ZM103.708 79.25L21.833 79.25L21.833 83.25L103.708 83.25V79.25ZM23.833 81.25L23.833 48.75L19.833 48.75L19.833 81.25L23.833 81.25ZM21.833 50.75L103.708 50.75V46.75L21.833 46.75L21.833 50.75ZM107.166 75.8333C107.166 77.7059 105.632 79.25 103.708 79.25V83.25C107.813 83.25 111.166 79.9439 111.166 75.8333H107.166ZM111.166 54.1667C111.166 50.0561 107.813 46.75 103.708 46.75V50.75C105.632 50.75 107.166 52.2941 107.166 54.1667H111.166Z" fill="black"/>
<path d="M87.333 81.25H89.333C89.333 80.1454 88.4376 79.25 87.333 79.25V81.25ZM87.333 108.333H89.333H87.333ZM81.8747 113.75V111.75V113.75ZM21.833 113.75H19.833C19.833 114.28 20.0437 114.789 20.4188 115.164C20.7939 115.539 21.3026 115.75 21.833 115.75L21.833 113.75ZM21.833 81.25L21.833 79.25C20.7284 79.25 19.833 80.1454 19.833 81.25L21.833 81.25ZM85.333 81.25V108.333H89.333V81.25H85.333ZM81.8747 111.75L21.833 111.75L21.833 115.75L81.8747 115.75V111.75ZM23.833 113.75L23.833 81.25L19.833 81.25L19.833 113.75H23.833ZM21.833 83.25L87.333 83.25V79.25L21.833 79.25L21.833 83.25ZM85.333 108.333C85.333 110.206 83.7991 111.75 81.8747 111.75V115.75C85.9793 115.75 89.333 112.444 89.333 108.333H85.333Z" fill="black"/>
</svg>
