<svg width="125" height="126" viewBox="0 0 125 126" fill="none" xmlns="http://www.w3.org/2000/svg">
<path d="M78.125 78.75H104.167C107.043 78.75 109.375 76.3995 109.375 73.5V21C109.375 18.1005 107.043 15.75 104.167 15.75L52.0833 15.75C49.2069 15.75 46.875 18.1005 46.875 21L46.875 47.25" stroke="black" stroke-width="4" stroke-linecap="round" stroke-linejoin="round"/>
<path d="M20.8333 110.25L72.9167 110.25C75.7932 110.25 78.125 107.899 78.125 105L78.125 52.5C78.125 49.6005 75.7932 47.25 72.9167 47.25L20.8333 47.25C17.9568 47.25 15.625 49.6005 15.625 52.5L15.625 105C15.625 107.899 17.9568 110.25 20.8333 110.25Z" stroke="black" stroke-width="4" stroke-linecap="round" stroke-linejoin="round"/>
</svg>
