<svg width="131" height="130" viewBox="0 0 131 130" fill="none" xmlns="http://www.w3.org/2000/svg">
<path d="M98.2503 113.75H32.7503C29.7358 113.75 27.292 111.325 27.292 108.333L27.292 21.6667C27.292 18.6751 29.7358 16.25 32.7503 16.25L74.0322 16.25C75.5527 16.25 77.0042 16.8794 78.0373 17.9865L102.255 43.9425C103.19 44.9438 103.709 46.2581 103.709 47.6226L103.709 108.333C103.709 111.325 101.265 113.75 98.2503 113.75Z" stroke="black" stroke-width="4" stroke-linecap="round" stroke-linejoin="round"/>
<path d="M49.125 92.0833H81.875" stroke="black" stroke-width="4" stroke-linecap="round" stroke-linejoin="round"/>
<path d="M49.125 75.8333H81.875" stroke="black" stroke-width="4" stroke-linecap="round" stroke-linejoin="round"/>
<path d="M103.708 48.75L76.4163 48.75C73.4018 48.75 70.958 46.3249 70.958 43.3333L70.958 16.25" stroke="black" stroke-width="4" stroke-linecap="round" stroke-linejoin="round"/>
</svg>
