<svg width="15" height="14" viewBox="0 0 15 14" fill="none" xmlns="http://www.w3.org/2000/svg">
<path d="M3.4994 12.2509L11.6667 12.2509C11.9889 12.2509 12.2501 11.9897 12.2501 11.6675L12.2501 5.83375C12.2501 5.51155 11.9889 5.25037 11.6667 5.25037L3.4994 5.25037C3.1772 5.25037 2.91602 5.51155 2.91602 5.83375L2.91602 11.6675C2.91602 11.9897 3.1772 12.2509 3.4994 12.2509Z" stroke="white" stroke-width="2" stroke-linecap="round" stroke-linejoin="round"/>
<path d="M9.19769 5.2504V4.2504V5.2504ZM5.96666 5.2504L5.96666 6.2504H5.96666L5.96666 5.2504ZM5.83203 5.11578H4.83203H5.83203ZM5.83203 3.50026L6.83203 3.50026L5.83203 3.50026ZM9.33231 3.50026H8.33231V3.50026L9.33231 3.50026ZM9.33231 5.11578H10.3323V5.11578L9.33231 5.11578ZM7.58217 1.75012L7.58217 2.75012L7.58217 1.75012ZM9.19769 4.2504L5.96666 4.2504L5.96666 6.2504L9.19769 6.2504L9.19769 4.2504ZM6.83203 5.11578L6.83203 3.50026L4.83203 3.50026L4.83203 5.11578H6.83203ZM8.33231 3.50026L8.33231 5.11578L10.3323 5.11578L10.3323 3.50026L8.33231 3.50026ZM7.58217 2.75012C7.99646 2.75012 8.33231 3.08597 8.33231 3.50026L10.3323 3.50026C10.3323 1.9814 9.10103 0.750122 7.58217 0.750122L7.58217 2.75012ZM6.83203 3.50026C6.83203 3.08597 7.16788 2.75012 7.58217 2.75012L7.58217 0.750122C6.06331 0.750122 4.83203 1.9814 4.83203 3.50026L6.83203 3.50026ZM5.96666 4.2504C6.44459 4.2504 6.83203 4.63785 6.83203 5.11578H4.83203C4.83203 5.74241 5.34002 6.2504 5.96666 6.2504L5.96666 4.2504ZM9.19769 6.2504C9.82432 6.2504 10.3323 5.74242 10.3323 5.11578H8.33231C8.33231 4.63784 8.71976 4.2504 9.19769 4.2504L9.19769 6.2504Z" fill="white"/>
</svg>
