<svg width="118" height="25" viewBox="0 0 118 25" fill="none" xmlns="http://www.w3.org/2000/svg">
<g clip-path="url(#clip0_31_540)">
<path d="M0.032838 21.3732C0.121108 20.7344 0.310364 19.8532 0.600606 18.7273C0.8901 17.6023 1.26113 16.4009 1.71295 15.124C2.74451 12.1954 3.96832 9.58695 5.38362 7.29642C5.58036 6.98224 5.83095 6.80047 6.13541 6.7511C6.56778 6.69275 6.94854 6.66283 7.27768 6.66283C7.60682 6.66283 7.90155 6.70023 8.16187 6.77354C8.42219 6.84685 8.62641 6.94335 8.77377 7.06079C9.0685 7.3069 9.11713 7.56722 8.92114 7.8425C7.14228 10.525 5.58933 13.7977 4.26305 17.6591C3.76185 19.1335 3.46189 20.1576 3.36389 20.7321C3.2659 21.3066 3.19409 21.7001 3.14995 21.911C3.10582 22.1227 3.08412 22.3067 3.08412 22.4638C3.08412 22.7885 3.29059 22.9501 3.70351 22.9501C4.11643 22.9501 4.57797 22.8543 5.08889 22.6628C5.59981 22.4706 6.15037 22.2005 6.73983 21.8519C7.32929 21.5026 7.9412 21.0777 8.57479 20.5765C9.20839 20.0753 9.83002 19.5128 10.4397 18.8889C11.0493 18.265 11.6238 17.5896 12.1647 16.8625C12.7048 16.1346 13.1768 15.3686 13.58 14.563C14.4739 12.7938 14.9212 11.0501 14.9212 9.33037C14.9212 6.97177 13.963 5.40461 12.0472 4.62814C11.3785 4.36333 10.6835 4.23018 9.96167 4.23018C9.23981 4.23018 8.62716 4.27656 8.12596 4.37081C7.62477 4.46507 7.14378 4.59448 6.68148 4.76054C5.74792 5.09492 4.96172 5.54225 4.32289 6.10254C4.15608 6.20054 3.95485 6.24916 3.71847 6.24916C3.48209 6.24916 3.22925 6.18034 2.9592 6.04345C2.68841 5.90581 2.44529 5.73375 2.22911 5.52804C1.73764 5.0463 1.5409 4.584 1.63964 4.14191C1.74736 3.5128 2.69065 2.96822 4.46951 2.50518C5.96336 2.12218 7.46693 1.92993 8.98023 1.92993C10.4935 1.92993 11.8572 2.13639 13.0706 2.54932C14.2839 2.96224 15.2691 3.51729 16.0261 4.21522C17.4414 5.53253 18.1483 7.29568 18.1483 9.50691C18.1483 12.4355 17.1362 15.2601 15.112 17.9823C13.2546 20.5077 11.0441 22.4242 8.47904 23.731C6.81838 24.5771 5.29012 24.999 3.89501 24.999C2.80435 24.999 1.86555 24.6796 1.07936 24.0407C0.234063 23.363 -0.114527 22.4736 0.032838 21.3732Z" fill="#231F20"/>
<path d="M18.8267 19.6931C18.8656 18.8373 19.0085 18.0204 19.2546 17.2387C19.4999 16.4578 19.8291 15.7007 20.242 14.9692C20.6549 14.2376 21.1389 13.5441 21.694 12.8911C22.249 12.2373 22.8512 11.665 23.4997 11.1736C24.9046 10.1226 26.3244 9.59668 27.7599 9.59668C29.44 9.59668 30.5606 10.2894 31.1208 11.6748C31.3176 12.1468 31.4103 12.7041 31.4014 13.3474C31.3916 13.9907 31.269 14.5854 31.0326 15.1315C30.7969 15.6768 30.47 16.1735 30.0519 16.6201C29.6337 17.0674 29.1378 17.4676 28.5633 17.8207C27.9888 18.1738 27.3619 18.4745 26.6842 18.7199C25.2883 19.2113 23.7952 19.4664 22.2034 19.4859C22.1637 19.6243 22.139 19.83 22.1293 20.1053C22.1196 20.3798 22.1488 20.6872 22.2176 21.0261C22.2864 21.365 22.4046 21.6672 22.5714 21.9327C22.9252 22.5222 23.4362 22.8169 24.1042 22.8169C25.2434 22.8169 26.3543 22.4833 27.4352 21.8145C27.8182 21.5886 28.1302 21.356 28.371 21.1144C28.6119 20.8735 28.8206 20.7538 28.9971 20.7538C29.1737 20.7538 29.3285 20.8593 29.4617 21.0702C29.5941 21.2819 29.6607 21.5206 29.6607 21.7854C29.6607 22.306 29.5133 22.7586 29.2186 23.1408C27.9805 24.3788 26.1381 24.9982 23.6912 24.9982C22.2468 24.9982 21.0873 24.5659 20.2128 23.7011C19.2299 22.7189 18.7683 21.3822 18.8267 19.6923V19.6931ZM27.4352 11.5558C26.4037 11.5558 25.4103 12.2635 24.458 13.6788C23.6523 14.8973 23.0038 16.3426 22.5123 18.0122C24.1535 17.8454 25.5786 17.1968 26.7867 16.0665C27.8968 15.0051 28.4526 13.9885 28.4526 13.0153C28.4526 12.042 28.1129 11.5558 27.4352 11.5558Z" fill="#231F20"/>
<path d="M33.6403 24.2629C33.3942 24.0071 33.1952 23.6809 33.0434 23.2822C32.8908 22.8843 32.8145 22.4227 32.8145 21.8961C32.8145 21.3695 32.9349 20.6648 33.1758 19.7814C33.4166 18.8964 33.7233 17.8896 34.0966 16.7593L35.3346 13.0893C37.094 7.97942 38.1106 4.02898 38.3859 1.23802C38.4742 0.412174 38.8774 0 39.5948 0C40.0466 0 40.4206 0.108467 40.7153 0.324653C41.2853 0.757024 41.5599 1.23877 41.5412 1.76913C41.5217 2.30025 41.4282 2.94581 41.2607 3.70807C41.0931 4.46958 40.8777 5.29992 40.6121 6.19907C40.3473 7.09822 40.0421 8.04899 39.698 9.05063L37.664 15.035C36.4948 18.4356 35.9099 20.6312 35.9099 21.6246C35.9099 22.1549 36.1261 22.4205 36.5584 22.4205C36.9714 22.4205 37.3469 22.3322 37.6857 22.1549C38.0246 21.9784 38.243 21.8901 38.3418 21.8901C38.5482 21.8901 38.6515 21.9933 38.6515 22.1998C38.6515 23.0743 38.2041 23.8059 37.3102 24.3961C36.7103 24.7993 36.1627 25.0012 35.6668 25.0012C35.1708 25.0012 34.7698 24.9422 34.4654 24.8247C34.1609 24.7065 33.8857 24.5203 33.6395 24.2644L33.6403 24.2629Z" fill="#231F20"/>
<path d="M46.2875 22.0959C46.5426 22.0959 46.6705 22.2634 46.6705 22.597C46.6705 23.0391 46.4686 23.4962 46.0661 23.9675C45.4759 24.6557 44.6852 24.9998 43.6925 24.9998C42.5525 24.9998 41.7716 24.5382 41.3489 23.6136C41.1918 23.289 41.1133 22.8963 41.1133 22.4347C41.1133 21.9732 41.1941 21.4593 41.3564 20.8937C41.5187 20.329 41.72 19.7343 41.9608 19.1104C42.2017 18.4865 42.4643 17.8544 42.7493 17.2163L43.5302 15.3589C44.1002 13.9736 44.3852 13.0602 44.3852 12.6173C44.3852 12.1745 44.3389 11.8835 44.2454 11.7406C44.1518 11.5985 44.0509 11.4878 43.9431 11.4092L43.6484 11.2028C43.5504 11.134 43.501 11.0135 43.501 10.8422C43.501 10.6709 43.5669 10.5056 43.7 10.3485C43.8332 10.1914 44.0075 10.053 44.2237 9.93559C44.6658 9.70968 45.1819 9.59673 45.7714 9.59673C47.2159 9.59673 47.9385 9.97524 47.9385 10.7323C47.9385 11.6165 47.7073 12.6256 47.2458 13.7611C46.7835 14.8966 46.3908 15.8123 46.0669 16.5102L45.1819 18.5449C44.5334 20.0387 44.2094 21.1152 44.2094 21.7727C44.2094 22.2051 44.4256 22.4213 44.858 22.4213C45.2807 22.4213 45.6001 22.3674 45.8163 22.2589C46.0324 22.1505 46.1903 22.0966 46.2883 22.0966L46.2875 22.0959ZM49.3096 6.13925C49.0935 6.3704 48.8473 6.55741 48.5728 6.69954C48.2983 6.84167 48.008 6.93069 47.7028 6.96435C47.3976 6.99801 47.1104 6.95163 46.8403 6.82371C46.5703 6.69655 46.3369 6.51477 46.1402 6.27839C45.7175 5.78692 45.5066 5.29097 45.5066 4.78977C45.5066 4.28858 45.5874 3.91231 45.7497 3.66172C45.912 3.41112 46.1155 3.20765 46.3616 3.05056C46.8329 2.74611 47.2779 2.59351 47.6953 2.59351C48.1128 2.59351 48.4374 2.62343 48.6678 2.68178C48.899 2.74087 49.1122 2.83961 49.3089 2.97725C49.7906 3.30191 50.0308 3.69688 50.0308 4.16366C50.0308 4.63044 49.9649 5.01942 49.8318 5.32837C49.6994 5.63806 49.5243 5.9081 49.3089 6.13925H49.3096Z" fill="#231F20"/>
<path d="M50.0468 23.4229C49.8995 23.0982 49.8262 22.7152 49.8262 22.2731C49.8262 21.831 49.895 21.3418 50.0326 20.8062C50.1703 20.2706 50.3468 19.723 50.563 19.1627C50.7792 18.6032 51.0201 18.0332 51.2849 17.4535L52.0367 15.7434C53.0099 13.4933 53.3682 12.167 53.1123 11.7638C52.9942 11.5775 52.7682 11.3905 52.4346 11.2035C52.3261 11.1347 52.2723 11.0143 52.2723 10.843C52.2723 10.6717 52.3434 10.5063 52.4862 10.3492C52.6291 10.1922 52.8176 10.0538 53.054 9.93632C53.5253 9.71041 54.0025 9.59746 54.4835 9.59746C54.9645 9.59746 55.3311 9.64833 55.5816 9.7523C55.8322 9.85554 56.0409 9.9857 56.2078 10.142C56.5219 10.4667 56.679 10.8594 56.679 11.3217C56.679 11.784 56.5908 12.3039 56.4142 12.8836C56.2377 13.4634 56.0163 14.073 55.7507 14.7119C55.4851 15.3507 55.1957 16.0045 54.8807 16.6717L54.0108 18.6032C53.3914 20.0275 53.0817 20.9715 53.0817 21.4331C53.0817 22.3375 53.4011 22.7885 54.0399 22.7885C55.6804 22.7885 57.2191 21.8153 58.6531 19.8704C59.4879 18.7401 60.0879 17.5118 60.4514 16.1848C60.619 15.5564 60.702 14.9841 60.702 14.468C60.702 13.9518 60.6848 13.5217 60.6504 13.1776C60.616 12.8335 60.5592 12.5291 60.4806 12.2635C60.3527 11.7915 60.1365 11.3838 59.8321 11.0397C59.6256 10.7846 59.7191 10.4846 60.1126 10.1405C60.5449 9.77774 61.1591 9.59521 61.955 9.59521C62.4465 9.59521 62.8781 9.82636 63.2521 10.2879C63.7234 10.8385 63.9598 11.6269 63.9598 12.654C63.9598 13.6811 63.8072 14.6879 63.5027 15.6753C63.1983 16.6628 62.7809 17.6113 62.2497 18.5209C61.7194 19.4298 61.0925 20.2773 60.3699 21.0628C59.648 21.8497 58.8686 22.5319 58.0337 23.1117C56.2452 24.3699 54.4566 24.9983 52.668 24.9983C51.3806 24.9983 50.5061 24.4724 50.0446 23.4214L50.0468 23.4229Z" fill="#231F20"/>
<path d="M70.3442 22.0959C70.5993 22.0959 70.7272 22.2634 70.7272 22.597C70.7272 23.0391 70.5252 23.4962 70.1227 23.9675C69.5325 24.6557 68.7418 24.9998 67.7492 24.9998C66.6092 24.9998 65.8282 24.5382 65.4056 23.6136C65.2485 23.289 65.1699 22.8963 65.1699 22.4347C65.1699 21.9732 65.2507 21.4593 65.413 20.8937C65.5754 20.329 65.7766 19.7343 66.0175 19.1104C66.2583 18.4865 66.5209 17.8544 66.8059 17.2163L67.5869 15.3589C68.1569 13.9736 68.4419 13.0602 68.4419 12.6173C68.4419 12.1745 68.3955 11.8835 68.302 11.7406C68.2085 11.5985 68.1075 11.4878 67.9998 11.4092L67.7051 11.2028C67.6071 11.134 67.5577 11.0135 67.5577 10.8422C67.5577 10.6709 67.6235 10.5056 67.7567 10.3485C67.8898 10.1914 68.0641 10.053 68.2803 9.93559C68.7224 9.70968 69.2386 9.59673 69.828 9.59673C71.2725 9.59673 71.9951 9.97524 71.9951 10.7323C71.9951 11.6165 71.764 12.6256 71.3024 13.7611C70.8401 14.8966 70.4474 15.8123 70.1235 16.5102L69.2385 18.5449C68.59 20.0387 68.2661 21.1152 68.2661 21.7727C68.2661 22.2051 68.4823 22.4213 68.9146 22.4213C69.3373 22.4213 69.6567 22.3674 69.8729 22.2589C70.0891 22.1505 70.2469 22.0966 70.3449 22.0966L70.3442 22.0959ZM73.3663 6.13925C73.1501 6.3704 72.904 6.55741 72.6295 6.69954C72.3549 6.84167 72.0647 6.93069 71.7595 6.96435C71.4543 6.99801 71.167 6.95163 70.897 6.82371C70.6269 6.69655 70.3935 6.51477 70.1968 6.27839C69.7741 5.78692 69.5632 5.29097 69.5632 4.78977C69.5632 4.28858 69.644 3.91231 69.8063 3.66172C69.9686 3.41112 70.1721 3.20765 70.4182 3.05056C70.8895 2.74611 71.3346 2.59351 71.752 2.59351C72.1694 2.59351 72.4941 2.62343 72.7245 2.68178C72.9556 2.74087 73.1688 2.83961 73.3655 2.97725C73.8473 3.30191 74.0874 3.69688 74.0874 4.16366C74.0874 4.63044 74.0216 5.01942 73.8884 5.32837C73.756 5.63806 73.581 5.9081 73.3655 6.13925H73.3663Z" fill="#435CA5"/>
<path d="M75.4145 23.85C75.0016 23.4573 74.6777 22.9583 74.4413 22.3539C74.2057 21.7495 74.083 21.0343 74.0725 20.2092C74.062 19.3841 74.1638 18.5486 74.3747 17.7033C74.5857 16.858 74.8856 16.0426 75.2739 15.2564C75.6621 14.4702 76.1289 13.7334 76.6742 13.0452C77.2195 12.3577 77.8217 11.7578 78.48 11.2476C79.9148 10.1465 81.4034 9.59668 82.9466 9.59668C84.9708 9.59668 86.342 10.4854 87.0594 12.2642C87.5703 13.5516 87.5995 15.109 87.1476 16.9365C86.7347 18.6174 85.9784 20.1606 84.8773 21.5654C83.7866 22.971 82.4993 23.9682 81.0151 24.5576C80.2678 24.8531 79.534 25.0005 78.8114 25.0005C78.0888 25.0005 77.4455 24.907 76.8799 24.72C76.3152 24.5337 75.8259 24.2435 75.4138 23.8507L75.4145 23.85ZM78.2302 16.7009C77.9354 17.428 77.7013 18.1745 77.53 18.9413C77.3579 19.7073 77.2771 20.4321 77.2869 21.1151C77.2966 21.7981 77.4021 22.3337 77.604 22.7212C77.8053 23.1102 78.1322 23.3032 78.584 23.3032C79.0358 23.3032 79.4809 23.1483 79.9178 22.8394C80.3546 22.5297 80.7803 22.119 81.1932 21.6081C81.6061 21.0972 81.9943 20.507 82.3579 19.8389C82.7214 19.1709 83.0408 18.4738 83.3161 17.7459C83.9153 16.1645 84.2048 14.759 84.1861 13.5299C84.1861 12.4497 83.9647 11.7615 83.5226 11.4661C83.3453 11.3486 83.097 11.2895 82.7783 11.2895C82.4596 11.2895 82.0923 11.4346 81.6802 11.7249C81.2672 12.0144 80.8543 12.4049 80.4421 12.8963C80.0292 13.387 79.632 13.9623 79.2483 14.6206C78.8653 15.2796 78.5264 15.9723 78.2317 16.6994L78.2302 16.7009Z" fill="#435CA5"/>
<path d="M103.318 21.9485C103.544 21.9485 103.657 22.0614 103.657 22.2873C103.657 23.1423 103.234 23.8597 102.389 24.4395C101.819 24.8127 101.151 24.9997 100.384 24.9997C99.7549 24.9997 99.2731 24.8524 98.9395 24.5569C98.3403 24.0265 98.0404 23.378 98.0404 22.6112C98.0404 21.638 98.448 20.1494 99.2642 18.1446C97.7509 20.1883 96.6894 21.5475 96.0805 22.22C95.4708 22.8932 94.9405 23.4169 94.4886 23.7901C93.5057 24.5958 92.6163 24.999 91.8204 24.999C90.6018 24.999 89.7909 24.4731 89.3885 23.4221C89.271 23.0975 89.2119 22.7264 89.2119 22.309C89.2119 21.8916 89.283 21.4248 89.4259 20.9087C89.568 20.3933 89.7528 19.8554 89.9787 19.2951C90.2046 18.7348 90.4499 18.1596 90.7155 17.5701L91.5114 15.8018C92.5332 13.5314 92.9118 12.1849 92.6462 11.763C92.528 11.5768 92.3073 11.3898 91.9827 11.2028C91.8645 11.1339 91.8061 11.0135 91.8061 10.8422C91.8061 10.6709 91.8772 10.5056 92.0201 10.3485C92.163 10.1914 92.347 10.053 92.5729 9.93556C93.0546 9.70965 93.5364 9.5967 94.0174 9.5967C94.4984 9.5967 94.8649 9.64756 95.1155 9.75154C95.3661 9.85477 95.5696 9.98493 95.7267 10.1413C96.0513 10.4659 96.2129 10.825 96.2129 11.217C96.2129 11.6089 96.1493 12.0495 96.0214 12.5365C95.8935 13.0228 95.7259 13.5509 95.5202 14.1209C95.3137 14.6916 95.0878 15.2811 94.8425 15.89C94.1647 17.4819 93.7077 18.5336 93.4713 19.0445L92.926 20.1801C92.6215 20.8578 92.4689 21.3343 92.4689 21.6096C92.4689 21.8849 92.513 22.0786 92.6013 22.1916C92.6896 22.3045 92.8497 22.3614 93.0808 22.3614C93.312 22.3614 93.5798 22.2529 93.8842 22.0367C94.1887 21.8205 94.523 21.5303 94.8866 21.1675C95.2501 20.8039 95.6287 20.3835 96.0221 19.9063C96.4149 19.4298 96.7986 18.9361 97.1719 18.4252C97.9087 17.4228 98.4495 16.6171 98.7929 16.0082C100.876 12.3233 101.987 10.3971 102.125 10.2295C102.439 9.80764 102.761 9.59595 103.09 9.59595C103.42 9.59595 103.707 9.6326 103.953 9.70591C104.198 9.77997 104.41 9.88544 104.587 10.0231C104.999 10.3275 105.132 10.632 104.984 10.9372C102.586 15.9394 101.294 19.0842 101.107 20.3708C101.058 20.8129 101.034 21.1174 101.034 21.2849C101.034 22.0315 101.26 22.4048 101.712 22.4048C102.134 22.4048 102.483 22.3285 102.758 22.1766C103.034 22.024 103.22 21.9477 103.319 21.9477L103.318 21.9485Z" fill="#435CA5"/>
<path d="M105.559 22.2581C105.559 21.9537 105.625 21.6709 105.758 21.4098C105.891 21.1495 106.055 20.9311 106.252 20.7546C106.665 20.3708 107.097 20.1793 107.549 20.1793C107.942 20.1793 108.139 20.3805 108.139 20.7837C108.139 21.8056 108.477 22.5177 109.155 22.9209C109.401 23.0675 109.656 23.1416 109.922 23.1416C110.188 23.1416 110.413 23.1124 110.6 23.0533C110.787 22.995 110.958 22.9015 111.116 22.7735C111.47 22.4885 111.646 22.1497 111.646 21.7569C111.646 21.3642 111.557 21.0022 111.381 20.6738C111.204 20.3446 110.983 19.9983 110.717 19.634L109.877 18.4551C108.697 16.8827 108.108 15.4329 108.108 14.1067C108.108 13.0063 108.575 12.0084 109.508 11.1145C110.57 10.1024 111.93 9.59668 113.591 9.59668C115.045 9.59668 116.18 9.95499 116.996 10.6724C117.664 11.2521 117.999 11.9156 117.999 12.6622C117.999 13.4387 117.704 14.0573 117.114 14.5188C116.584 14.9318 116.053 15.0844 115.523 14.9759C115.287 14.9273 115.104 14.8061 114.977 14.6146C114.849 14.4231 114.825 14.2047 114.903 13.9585C114.982 13.7132 115.021 13.4574 115.021 13.1925C115.021 12.9277 114.972 12.6816 114.874 12.4557C114.775 12.2298 114.643 12.0383 114.476 11.8805C114.132 11.5558 113.771 11.395 113.393 11.395C113.015 11.395 112.702 11.4369 112.457 11.5199C112.211 11.6029 111.995 11.7234 111.809 11.8805C111.426 12.235 111.234 12.6697 111.234 13.1851C111.234 13.7005 111.322 14.1456 111.499 14.5188C111.675 14.8929 111.895 15.2661 112.155 15.6394C112.415 16.0127 112.698 16.3912 113.002 16.7742C113.307 17.1579 113.587 17.5611 113.843 17.983C114.463 18.9757 114.772 19.8479 114.772 20.5997C114.772 21.3515 114.614 21.9806 114.3 22.4855C113.985 22.992 113.578 23.4273 113.076 23.7901C112.005 24.5861 110.806 24.9848 109.48 24.9848C108.213 24.9848 107.21 24.6803 106.473 24.0707C105.863 23.559 105.559 22.9553 105.559 22.2574L105.559 22.2581Z" fill="#435CA5"/>
</g>
<defs>
<clipPath id="clip0_31_540">
<rect width="118" height="24.9997" fill="white"/>
</clipPath>
</defs>
</svg>
