<svg width="576" height="123" viewBox="0 0 576 123" fill="none" xmlns="http://www.w3.org/2000/svg">
<g clip-path="url(#clip0_30_23)">
<path d="M0.160782 104.33C0.591658 101.212 1.51548 96.9105 2.93226 91.415C4.34538 85.9232 6.15652 80.0589 8.36202 73.8258C13.3974 59.5302 19.3712 46.7975 26.2799 35.6167C27.2402 34.083 28.4634 33.1957 29.9496 32.9547C32.0602 32.6699 33.9188 32.5238 35.5254 32.5238C37.1321 32.5238 38.5708 32.7064 39.8415 33.0643C41.1122 33.4221 42.1091 33.8932 42.8284 34.4664C44.2671 35.6678 44.5044 36.9385 43.5477 38.2822C34.8645 51.3765 27.284 67.3517 20.8099 86.2007C18.3634 93.3978 16.8992 98.3967 16.4208 101.201C15.9425 104.005 15.592 105.926 15.3765 106.956C15.1611 107.989 15.0552 108.887 15.0552 109.654C15.0552 111.239 16.063 112.028 18.0786 112.028C20.0942 112.028 22.3472 111.56 24.8412 110.625C27.3351 109.687 30.0226 108.369 32.9 106.667C35.7774 104.962 38.7643 102.888 41.8571 100.441C44.9499 97.995 47.9843 95.2491 50.9603 92.2037C53.9362 89.1584 56.7406 85.8611 59.3806 82.3119C62.0169 78.759 64.321 75.0198 66.2892 71.0872C70.6527 62.4514 72.8363 53.9398 72.8363 45.545C72.8363 34.0319 68.1588 26.382 58.8073 22.5918C55.5429 21.2992 52.1506 20.6492 48.627 20.6492C45.1033 20.6492 42.1127 20.8756 39.6662 21.3357C37.2197 21.7958 34.8718 22.4275 32.6152 23.2381C28.0581 24.8703 24.2204 27.0539 21.1021 29.7889C20.2878 30.2672 19.3055 30.5046 18.1517 30.5046C16.9978 30.5046 15.7636 30.1686 14.4454 29.5004C13.1236 28.8285 11.9368 27.9887 10.8815 26.9845C8.48252 24.633 7.52218 22.3764 8.00417 20.2183C8.52999 17.1474 13.1345 14.4892 21.8177 12.2289C29.1098 10.3593 36.4492 9.4209 43.8362 9.4209C51.2232 9.4209 57.8798 10.4287 63.8025 12.4443C69.7252 14.4599 74.5342 17.1694 78.2295 20.5762C85.1382 27.0065 88.5888 35.613 88.5888 46.4068C88.5888 60.7024 83.6484 74.4904 73.7674 87.7781C64.7008 100.106 53.9106 109.461 41.3897 115.84C33.2834 119.97 25.8234 122.029 19.0134 122.029C13.6895 122.029 9.10692 120.47 5.26921 117.352C1.14303 114.043 -0.55856 109.702 0.160782 104.33Z" fill="#231F20"/>
<path d="M91.9004 96.1291C92.0903 91.9518 92.7878 87.9644 93.9891 84.1486C95.1868 80.3364 96.7934 76.6411 98.809 73.0699C100.825 69.4988 103.187 66.1139 105.897 62.9261C108.606 59.7347 111.545 56.9413 114.711 54.5423C121.569 49.412 128.499 46.845 135.506 46.845C143.708 46.845 149.178 50.2262 151.913 56.9888C152.873 59.2929 153.326 62.0132 153.282 65.1535C153.234 68.2938 152.636 71.1967 151.482 73.8623C150.332 76.5243 148.736 78.9488 146.695 81.1288C144.653 83.3124 142.233 85.2659 139.428 86.9894C136.624 88.7129 133.564 90.1808 130.256 91.3785C123.442 93.7775 116.154 95.0227 108.383 95.1176C108.19 95.7931 108.069 96.7973 108.022 98.1411C107.974 99.4811 108.117 100.982 108.453 102.636C108.789 104.29 109.365 105.765 110.18 107.062C111.907 109.939 114.401 111.378 117.662 111.378C123.223 111.378 128.645 109.749 133.922 106.485C135.791 105.382 137.314 104.246 138.49 103.067C139.666 101.891 140.684 101.307 141.546 101.307C142.408 101.307 143.164 101.822 143.814 102.851C144.46 103.885 144.785 105.05 144.785 106.342C144.785 108.884 144.066 111.093 142.627 112.959C136.584 119.002 127.59 122.025 115.646 122.025C108.595 122.025 102.935 119.915 98.6666 115.694C93.8686 110.899 91.6156 104.374 91.9004 96.1254V96.1291ZM133.922 56.4082C128.886 56.4082 124.037 59.8625 119.389 66.7711C115.456 72.7194 112.29 79.7741 109.891 87.9242C117.903 87.1099 124.859 83.9441 130.756 78.4267C136.175 73.2452 138.888 68.2828 138.888 63.5323C138.888 58.7817 137.23 56.4082 133.922 56.4082Z" fill="#231F20"/>
<path d="M164.211 118.436C163.01 117.187 162.038 115.595 161.297 113.649C160.552 111.706 160.18 109.453 160.18 106.883C160.18 104.312 160.768 100.872 161.943 96.5599C163.119 92.2402 164.616 87.3253 166.438 81.8079L172.482 63.8937C181.07 38.9504 186.032 19.6669 187.376 6.04321C187.807 2.01197 189.775 0 193.277 0C195.482 0 197.308 0.529465 198.747 1.58474C201.529 3.6953 202.869 6.04686 202.778 8.63577C202.683 11.2283 202.227 14.3796 201.409 18.1004C200.591 21.8176 199.539 25.8708 198.243 30.2599C196.95 34.649 195.46 39.29 193.781 44.1793L183.852 73.3912C178.145 89.9909 175.29 100.708 175.29 105.557C175.29 108.146 176.345 109.442 178.455 109.442C180.471 109.442 182.304 109.011 183.958 108.146C185.612 107.284 186.679 106.853 187.161 106.853C188.168 106.853 188.672 107.357 188.672 108.365C188.672 112.634 186.489 116.205 182.125 119.086C179.197 121.054 176.524 122.04 174.103 122.04C171.682 122.04 169.725 121.752 168.239 121.178C166.752 120.601 165.409 119.692 164.207 118.443L164.211 118.436Z" fill="#231F20"/>
<path d="M225.947 107.858C227.192 107.858 227.816 108.675 227.816 110.304C227.816 112.462 226.83 114.693 224.866 116.994C221.985 120.353 218.125 122.033 213.28 122.033C207.715 122.033 203.903 119.78 201.84 115.266C201.073 113.682 200.689 111.765 200.689 109.512C200.689 107.259 201.084 104.75 201.876 101.99C202.669 99.2327 203.651 96.3298 204.827 93.2845C206.002 90.2391 207.284 87.1536 208.675 84.0389L212.487 74.9723C215.27 68.2097 216.661 63.7513 216.661 61.5896C216.661 59.4279 216.435 58.0075 215.978 57.31C215.522 56.6163 215.029 56.0758 214.503 55.6924L213.064 54.6846C212.586 54.3487 212.345 53.7608 212.345 52.9246C212.345 52.0884 212.666 51.2814 213.316 50.5146C213.966 49.7478 214.817 49.0723 215.872 48.499C218.03 47.3963 220.55 46.8449 223.427 46.8449C230.478 46.8449 234.006 48.6925 234.006 52.3878C234.006 56.7039 232.877 61.6297 230.624 67.1727C228.368 72.7157 226.451 77.1851 224.87 80.5919L220.55 90.524C217.384 97.816 215.803 103.07 215.803 106.28C215.803 108.391 216.858 109.446 218.969 109.446C221.032 109.446 222.591 109.183 223.646 108.654C224.702 108.124 225.472 107.861 225.95 107.861L225.947 107.858ZM240.699 29.9677C239.644 31.096 238.442 32.0089 237.102 32.7027C235.762 33.3965 234.345 33.831 232.855 33.9953C231.366 34.1596 229.963 33.9332 228.645 33.3088C227.327 32.6881 226.188 31.8008 225.227 30.6469C223.164 28.2479 222.135 25.8269 222.135 23.3804C222.135 20.9339 222.529 19.0972 223.321 17.874C224.114 16.6507 225.107 15.6575 226.308 14.8907C228.609 13.4046 230.781 12.6597 232.819 12.6597C234.856 12.6597 236.441 12.8057 237.566 13.0905C238.694 13.379 239.735 13.861 240.695 14.5329C243.047 16.1176 244.219 18.0456 244.219 20.3241C244.219 22.6027 243.897 24.5014 243.248 26.0095C242.601 27.5212 241.747 28.8394 240.695 29.9677H240.699Z" fill="#231F20"/>
<path d="M244.295 114.335C243.576 112.751 243.218 110.881 243.218 108.723C243.218 106.565 243.554 104.177 244.226 101.562C244.898 98.948 245.76 96.2751 246.815 93.5402C247.87 90.8088 249.046 88.0264 250.339 85.1965L254.008 76.8492C258.759 65.8655 260.508 59.3915 259.259 57.4233C258.682 56.5141 257.58 55.6012 255.951 54.6883C255.422 54.3524 255.159 53.7645 255.159 52.9283C255.159 52.0921 255.506 51.2852 256.203 50.5183C256.9 49.7515 257.821 49.076 258.974 48.5027C261.275 47.4 263.604 46.8486 265.952 46.8486C268.3 46.8486 270.09 47.0969 271.313 47.6045C272.536 48.1084 273.555 48.7437 274.369 49.5069C275.903 51.0916 276.67 53.0087 276.67 55.2653C276.67 57.5219 276.239 60.0597 275.377 62.8896C274.515 65.7195 273.434 68.6954 272.138 71.8138C270.842 74.9322 269.429 78.1236 267.891 81.3807L263.645 90.8088C260.621 97.7613 259.11 102.369 259.11 104.622C259.11 109.037 260.669 111.239 263.787 111.239C271.795 111.239 279.306 106.488 286.306 96.9945C290.381 91.4771 293.309 85.4813 295.084 79.0036C295.902 75.9363 296.307 73.143 296.307 70.6234C296.307 68.1039 296.223 66.0043 296.055 64.3246C295.887 62.6449 295.61 61.1588 295.226 59.8625C294.602 57.5584 293.547 55.5684 292.061 53.8887C291.053 52.6435 291.509 51.1793 293.43 49.4996C295.54 47.7286 298.538 46.8376 302.423 46.8376C304.822 46.8376 306.929 47.966 308.755 50.2189C311.056 52.9064 312.209 56.7551 312.209 61.7686C312.209 66.7821 311.465 71.697 309.978 76.5169C308.492 81.3369 306.455 85.967 303.862 90.4072C301.273 94.8437 298.213 98.9809 294.686 102.815C291.162 106.656 287.357 109.986 283.282 112.816C274.552 118.958 265.821 122.025 257.09 122.025C250.806 122.025 246.537 119.458 244.284 114.328L244.295 114.335Z" fill="#231F20"/>
<path d="M343.375 107.858C344.62 107.858 345.245 108.675 345.245 110.304C345.245 112.462 344.259 114.693 342.294 116.994C339.413 120.353 335.554 122.033 330.708 122.033C325.143 122.033 321.331 119.78 319.268 115.266C318.501 113.682 318.118 111.765 318.118 109.512C318.118 107.259 318.512 104.75 319.304 101.99C320.097 99.2327 321.079 96.3298 322.255 93.2845C323.431 90.2391 324.712 87.1536 326.103 84.0389L329.916 74.9723C332.698 68.2097 334.089 63.7513 334.089 61.5896C334.089 59.4279 333.863 58.0075 333.406 57.31C332.95 56.6163 332.457 56.0758 331.931 55.6924L330.493 54.6846C330.014 54.3487 329.773 53.7608 329.773 52.9246C329.773 52.0884 330.095 51.2814 330.745 50.5146C331.394 49.7478 332.245 49.0723 333.301 48.499C335.459 47.3963 337.978 46.8449 340.855 46.8449C347.906 46.8449 351.434 48.6925 351.434 52.3878C351.434 56.7039 350.306 61.6297 348.053 67.1727C345.796 72.7157 343.879 77.1851 342.298 80.5919L337.978 90.524C334.812 97.816 333.231 103.07 333.231 106.28C333.231 108.391 334.286 109.446 336.397 109.446C338.46 109.446 340.019 109.183 341.075 108.654C342.13 108.124 342.9 107.861 343.379 107.861L343.375 107.858ZM358.127 29.9677C357.072 31.096 355.87 32.0089 354.53 32.7027C353.19 33.3965 351.773 33.831 350.284 33.9953C348.794 34.1596 347.392 33.9332 346.073 33.3088C344.755 32.6881 343.616 31.8008 342.656 30.6469C340.593 28.2479 339.563 25.8269 339.563 23.3804C339.563 20.9339 339.957 19.0972 340.75 17.874C341.542 16.6507 342.535 15.6575 343.736 14.8907C346.037 13.4046 348.21 12.6597 350.247 12.6597C352.285 12.6597 353.869 12.8057 354.994 13.0905C356.122 13.379 357.163 13.861 358.123 14.5329C360.475 16.1176 361.647 18.0456 361.647 20.3241C361.647 22.6027 361.326 24.5014 360.676 26.0095C360.029 27.5212 359.175 28.8394 358.123 29.9677H358.127Z" fill="#435CA5"/>
<path d="M368.125 116.42C366.109 114.503 364.528 112.068 363.374 109.117C362.224 106.167 361.625 102.676 361.574 98.6486C361.523 94.621 362.019 90.5423 363.049 86.4161C364.079 82.2899 365.543 78.3098 367.438 74.4721C369.333 70.6344 371.612 67.0377 374.274 63.6783C376.936 60.3226 379.875 57.3941 383.088 54.9038C390.092 49.5288 397.358 46.845 404.891 46.845C414.772 46.845 421.466 51.1829 424.967 59.8662C427.461 66.1504 427.604 73.7528 425.398 82.6734C423.383 90.8782 419.691 98.4113 414.316 105.269C408.992 112.13 402.708 116.997 395.463 119.875C391.815 121.317 388.233 122.036 384.706 122.036C381.179 122.036 378.038 121.58 375.278 120.667C372.521 119.758 370.133 118.341 368.121 116.424L368.125 116.42ZM381.869 81.5231C380.43 85.0724 379.287 88.7166 378.451 92.4593C377.611 96.1985 377.217 99.7367 377.264 103.071C377.312 106.404 377.827 109.019 378.813 110.91C379.795 112.809 381.391 113.751 383.596 113.751C385.801 113.751 387.974 112.995 390.107 111.487C392.239 109.976 394.317 107.971 396.332 105.477C398.348 102.983 400.243 100.102 402.018 96.8411C403.792 93.5803 405.352 90.1772 406.695 86.6243C409.62 78.905 411.033 72.0439 410.942 66.0445C410.942 60.7717 409.861 57.4124 407.703 55.97C406.838 55.3967 405.625 55.1083 404.07 55.1083C402.514 55.1083 400.721 55.8167 398.709 57.2334C396.694 58.6466 394.678 60.5526 392.666 62.9517C390.651 65.347 388.712 68.155 386.839 71.3684C384.969 74.5853 383.315 77.9666 381.876 81.5158L381.869 81.5231Z" fill="#435CA5"/>
<path d="M504.332 107.138C505.435 107.138 505.986 107.69 505.986 108.792C505.986 112.966 503.923 116.468 499.797 119.298C497.015 121.12 493.754 122.033 490.011 122.033C486.94 122.033 484.589 121.313 482.96 119.871C480.035 117.282 478.571 114.116 478.571 110.374C478.571 105.623 480.561 98.3565 484.545 88.5705C477.158 98.5463 471.976 105.181 469.004 108.464C466.028 111.75 463.439 114.306 461.234 116.128C456.436 120.061 452.094 122.029 448.209 122.029C442.261 122.029 438.302 119.462 436.338 114.332C435.765 112.747 435.476 110.936 435.476 108.898C435.476 106.861 435.823 104.582 436.52 102.063C437.214 99.5469 438.116 96.9214 439.219 94.1865C440.322 91.4515 441.519 88.6435 442.816 85.7661L446.701 77.134C451.689 66.0518 453.536 59.4791 452.24 57.4197C451.663 56.5104 450.586 55.5976 449.001 54.6847C448.424 54.3488 448.139 53.7609 448.139 52.9247C448.139 52.0885 448.486 51.2815 449.184 50.5147C449.881 49.7479 450.779 49.0724 451.882 48.4991C454.234 47.3963 456.585 46.845 458.933 46.845C461.281 46.845 463.07 47.0933 464.294 47.6008C465.517 48.1047 466.51 48.7401 467.277 49.5032C468.862 51.088 469.65 52.8407 469.65 54.7541C469.65 56.6675 469.34 58.8182 468.716 61.1953C468.091 63.5688 467.273 66.1467 466.269 68.9291C465.261 71.7152 464.158 74.5926 462.961 77.5649C459.653 85.3353 457.422 90.4693 456.268 92.9632L453.606 98.5062C452.12 101.814 451.375 104.14 451.375 105.484C451.375 106.828 451.59 107.774 452.021 108.325C452.452 108.876 453.233 109.154 454.362 109.154C455.49 109.154 456.797 108.624 458.283 107.569C459.769 106.514 461.402 105.097 463.176 103.326C464.951 101.552 466.799 99.4994 468.719 97.1697C470.636 94.8437 472.509 92.4338 474.332 89.9398C477.928 85.0468 480.568 81.1142 482.244 78.1418C492.414 60.1546 497.836 50.7521 498.508 49.9341C500.042 47.8747 501.615 46.8413 503.222 46.8413C504.829 46.8413 506.231 47.0202 507.432 47.3781C508.63 47.7396 509.663 48.2544 510.525 48.9263C512.541 50.4125 513.187 51.8986 512.468 53.3884C500.761 77.8059 494.455 93.1568 493.542 99.4373C493.301 101.595 493.184 103.081 493.184 103.899C493.184 107.544 494.287 109.366 496.492 109.366C498.552 109.366 500.257 108.993 501.601 108.252C502.945 107.507 503.854 107.135 504.336 107.135L504.332 107.138Z" fill="#435CA5"/>
<path d="M515.272 108.65C515.272 107.164 515.594 105.784 516.243 104.509C516.893 103.239 517.693 102.172 518.653 101.311C520.669 99.4373 522.78 98.5025 524.985 98.5025C526.902 98.5025 527.863 99.4848 527.863 101.453C527.863 106.441 529.517 109.917 532.825 111.885C534.026 112.601 535.271 112.962 536.568 112.962C537.864 112.962 538.967 112.82 539.876 112.532C540.789 112.247 541.625 111.79 542.395 111.166C544.123 109.775 544.984 108.121 544.984 106.204C544.984 104.286 544.55 102.519 543.688 100.916C542.826 99.3095 541.745 97.6189 540.449 95.8406L536.349 90.0859C530.59 82.4104 527.713 75.3339 527.713 68.8598C527.713 63.4884 529.991 58.6174 534.548 54.2538C539.73 49.3134 546.372 46.845 554.478 46.845C561.577 46.845 567.116 48.594 571.1 52.0958C574.36 54.9257 575.993 58.1646 575.993 61.8088C575.993 65.599 574.554 68.6188 571.677 70.8717C569.088 72.8874 566.495 73.6323 563.906 73.1028C562.756 72.8655 561.865 72.2739 561.244 71.3391C560.62 70.4044 560.499 69.3381 560.883 68.1368C561.266 66.9391 561.46 65.6903 561.46 64.3977C561.46 63.105 561.219 61.9037 560.74 60.8009C560.258 59.6982 559.612 58.7634 558.798 57.993C557.118 56.4082 555.355 55.6231 553.511 55.6231C551.667 55.6231 550.14 55.8276 548.943 56.2329C547.741 56.6383 546.686 57.2261 545.777 57.993C543.907 59.7238 542.972 61.8453 542.972 64.3611C542.972 66.877 543.403 69.0497 544.265 70.8717C545.127 72.6975 546.197 74.5196 547.467 76.3417C548.738 78.1638 550.118 80.0114 551.604 81.881C553.091 83.7542 554.46 85.7223 555.709 87.7818C558.732 92.6273 560.24 96.8849 560.24 100.555C560.24 104.224 559.473 107.295 557.94 109.76C556.403 112.232 554.412 114.357 551.966 116.128C546.737 120.013 540.884 121.96 534.41 121.96C528.224 121.96 523.327 120.474 519.731 117.498C516.755 115 515.269 112.053 515.269 108.646L515.272 108.65Z" fill="#435CA5"/>
</g>
<defs>
<clipPath id="clip0_30_23">
<rect width="576" height="122.033" fill="white"/>
</clipPath>
</defs>
</svg>
