<svg width="144" height="144" viewBox="0 0 144 144" fill="none" xmlns="http://www.w3.org/2000/svg">
<path d="M0 29C0 12.9837 12.9837 0 29 0H115C131.016 0 144 12.9837 144 29V115C144 131.016 131.016 144 115 144H29C12.9837 144 0 131.016 0 115V29Z" fill="#435CA5"/>
<path d="M36.1339 102.226C36.4938 99.6229 37.2655 96.0322 38.449 91.4448C39.6294 86.8605 41.1423 81.9653 42.9846 76.7622C47.1908 64.8289 52.1809 54.2002 57.9518 44.867C58.754 43.5868 59.7758 42.8461 61.0172 42.6449C62.7802 42.4072 64.3328 42.2853 65.6748 42.2853C67.0169 42.2853 68.2187 42.4377 69.2802 42.7364C70.3416 43.0351 71.1743 43.4283 71.7752 43.9068C72.977 44.9097 73.1752 45.9704 72.3761 47.0921C65.1228 58.0225 58.7906 71.3579 53.3826 87.0922C51.339 93.0999 50.1159 97.2728 49.7163 99.6137C49.3168 101.955 49.0239 103.558 48.844 104.417C48.664 105.28 48.5756 106.03 48.5756 106.67C48.5756 107.993 49.4174 108.651 51.1011 108.651C52.7848 108.651 54.6668 108.261 56.75 107.481C58.8333 106.697 61.0782 105.597 63.4818 104.177C65.8853 102.753 68.3804 101.022 70.9639 98.9797C73.5474 96.9375 76.082 94.6453 78.5679 92.1032C81.0538 89.5611 83.3964 86.8087 85.6016 83.8459C87.8039 80.8802 89.7285 77.7589 91.3726 74.4761C95.0175 67.2674 96.8415 60.1623 96.8415 53.1547C96.8415 43.5441 92.9343 37.1584 85.1228 33.9945C82.3959 32.9154 79.5623 32.3729 76.6189 32.3729C73.6755 32.3729 71.1774 32.5619 69.1337 32.9459C67.0901 33.33 65.1289 33.8573 63.2439 34.534C59.4372 35.8965 56.2315 37.7192 53.6267 40.0022C52.9465 40.4015 52.126 40.5997 51.1621 40.5997C50.1983 40.5997 49.1673 40.3192 48.0662 39.7614C46.962 39.2006 45.9707 38.4995 45.0892 37.6613C43.0852 35.6983 42.2831 33.8146 42.6857 32.0132C43.1249 29.4498 46.9712 27.2307 54.2245 25.344C60.3157 23.7834 66.4465 23 72.617 23C78.7876 23 84.348 23.8413 89.2954 25.5238C94.2428 27.2064 98.2599 29.468 101.347 32.3119C107.118 37.6796 110 44.8639 110 53.8741C110 65.8074 105.873 77.3169 97.6193 88.4089C90.0458 98.6993 81.0325 106.508 70.5734 111.833C63.802 115.281 57.5705 117 51.882 117C47.4348 117 43.6068 115.698 40.4011 113.095C36.9544 110.334 35.533 106.71 36.1339 102.226V102.226Z" fill="white"/>
</svg>
