<svg width="30" height="30" viewBox="0 0 30 30" fill="none" xmlns="http://www.w3.org/2000/svg">
<path d="M21.25 26.25C22.6307 26.25 23.75 25.1307 23.75 23.75C23.75 22.3693 22.6307 21.25 21.25 21.25C19.8693 21.25 18.75 22.3693 18.75 23.75C18.75 25.1307 19.8693 26.25 21.25 26.25Z" stroke="black" stroke-width="3" stroke-linecap="round" stroke-linejoin="round"/>
<path d="M10 26.25C11.3807 26.25 12.5 25.1307 12.5 23.75C12.5 22.3693 11.3807 21.25 10 21.25C8.61929 21.25 7.5 22.3693 7.5 23.75C7.5 25.1307 8.61929 26.25 10 26.25Z" stroke="black" stroke-width="3" stroke-linecap="round" stroke-linejoin="round"/>
<path d="M3.75 3.75H5.23948C5.8289 3.75 6.33823 4.16175 6.46173 4.73809L9.78827 20.2619C9.91177 20.8382 10.4211 21.25 11.0105 21.25H21.25" stroke="black" stroke-width="3" stroke-linecap="round" stroke-linejoin="round"/>
<path d="M7.5 7.5H24.5885C25.4203 7.5 26.02 8.29724 25.7895 9.09645L23.626 16.5965C23.4717 17.1316 22.9819 17.5 22.425 17.5H9.66346" stroke="black" stroke-width="3" stroke-linecap="round" stroke-linejoin="round"/>
</svg>
